<svg width="33" height="34" viewBox="0 0 33 34" fill="none" xmlns="http://www.w3.org/2000/svg">
<path d="M16.5 33C16.7761 33 17 32.7761 17 32.5C17 32.2239 16.7761 32 16.5 32V32.5V33ZM18.5 32.3762L24.0828 33.8479L22.5659 28.2772L18.5 32.3762ZM16.5 32.5V32C7.93959 32 1 25.0604 1 16.5H0.5H0C0 25.6127 7.3873 33 16.5 33V32.5ZM0.5 16.5H1C1 7.93959 7.93959 1 16.5 1V0.5V0C7.3873 0 0 7.3873 0 16.5H0.5ZM32.5 16.5H32C32 22.877 28.1488 28.3557 22.6433 30.735L22.8417 31.194L23.04 31.653C28.8986 29.1211 33 23.2901 33 16.5H32.5ZM16.5 0.5V1C25.0604 1 32 7.93959 32 16.5H32.5H33C33 7.3873 25.6127 0 16.5 0V0.5Z" fill="#FF810C"/>
<path d="M19.5938 16.5312C20.2812 15.1562 20.8438 13.5312 21.2812 11.6562C21.3438 11.5312 21.3438 11.4375 21.2812 11.375C21.2812 11.375 21.2188 11.375 21.0938 11.375C20.2812 11.75 19.2188 12.0625 17.9062 12.3125C17.7188 12.375 17.4688 12.375 17.1562 12.3125C17.0312 12.25 16.8438 12.1562 16.5938 12.0312C16.1562 11.8438 15.8438 11.6562 15.6562 11.4688C15.4688 11.3438 15.4688 11.2812 15.6562 11.2812C16.9062 11.0938 18.4062 10.75 20.1562 10.25C20.9062 10.0625 21.375 9.8125 21.5625 9.5C21.75 9.3125 21.9062 9.25 22.0312 9.3125C22.3438 9.375 23 9.59375 24 9.96875C24.375 10.0938 24.625 10.1875 24.75 10.25C25.0625 10.5625 25.0312 10.875 24.6562 11.1875C24.2812 11.4375 24 12 23.8125 12.875C23.0625 15.3125 22.2812 17.2812 21.4688 18.7812C24.0938 21.7188 26.3125 23.4062 28.125 23.8438C28.25 23.9062 28.3125 23.9688 28.3125 24.0312C28.3125 24.0938 28.25 24.1562 28.125 24.2188C27 24.4688 25.5312 24.7188 23.7188 24.9688C23.0312 25.0938 22.4688 24.8438 22.0312 24.2188C21.9688 24.1562 21.875 24.0312 21.75 23.8438C21.25 23.1562 20.625 22.1875 19.875 20.9375C18.375 22.625 16.0625 23.6875 12.9375 24.125C12.75 24.125 12.75 24.0625 12.9375 23.9375C15.1875 22.5625 17 20.8125 18.375 18.6875C18.0625 18.0625 17.7188 17.4688 17.3438 16.9062C16.5312 15.3438 15.7812 14.6562 15.0938 14.8438C14.9688 14.9062 14.875 14.9062 14.8125 14.8438C14.8125 14.7812 14.8438 14.6875 14.9062 14.5625C15.2812 14.0625 15.7812 13.8125 16.4062 13.8125C16.8438 13.5 17.9062 14.4062 19.5938 16.5312ZM14.4375 11C14.5625 10.9375 14.625 10.9688 14.625 11.0938C14.9375 11.3438 15.25 11.6875 15.5625 12.125C15.6875 12.25 15.6562 12.3125 15.4688 12.3125C15.2188 12.375 14.7188 12.5 13.9688 12.6875C13.3438 12.8125 12.8438 12.9062 12.4688 12.9688C12.4688 13.6562 12.4375 14.375 12.375 15.125C13.125 15.3125 13.75 15.5312 14.25 15.7812C14.875 16.0312 15.0625 16.4688 14.8125 17.0938C14.8125 17.0938 14.7812 17.1562 14.7188 17.2812C14.5938 17.7812 14.4688 18.0938 14.3438 18.2188C14.1562 18.5938 13.9375 18.625 13.6875 18.3125C13.1875 17.625 12.75 16.9688 12.375 16.3438C12.375 18.3438 12.375 20.2812 12.375 22.1562C12.375 23.9688 12.0625 25.4375 11.4375 26.5625C11.25 26.8125 11.0938 26.8438 10.9688 26.6562C10.9062 26.5938 10.8125 26.4375 10.6875 26.1875C10.0625 25.375 9.5625 24.8125 9.1875 24.5C9.125 24.3125 9.125 24.1562 9.1875 24.0312C9.625 22.7188 9.96875 20.4688 10.2188 17.2812V16.9062C8.78125 18.9688 7.03125 20.3125 4.96875 20.9375C4.78125 21 4.75 20.9375 4.875 20.75C6.5625 19.1875 8.21875 16.7812 9.84375 13.5312C9.15625 13.7188 8.5625 13.875 8.0625 14C7.875 14.125 7.71875 14.0938 7.59375 13.9062C6.96875 13.4062 6.4375 12.9062 6 12.4062C5.9375 12.3438 5.9375 12.3125 6 12.3125C6.9375 12.1875 8.375 12 10.3125 11.75C10.3125 10.3125 10.2812 9.125 10.2188 8.1875C10.0938 7 9.8125 6.25 9.375 5.9375C9.3125 5.875 9.28125 5.78125 9.28125 5.65625C9.28125 5.59375 9.34375 5.59375 9.46875 5.65625C10.5938 5.90625 11.5312 6.03125 12.2812 6.03125C12.6562 6.09375 12.8438 6.3125 12.8438 6.6875C12.6562 8.125 12.5312 9.6875 12.4688 11.375C12.7188 11.3125 13.0625 11.25 13.5 11.1875C13.9375 11.0625 14.25 11 14.4375 11Z" fill="#FF810C"/>
</svg>
